<?xml version="1.0" encoding="UTF-8" standalone="no"?>
<!DOCTYPE svg PUBLIC "-//W3C//DTD SVG 1.1//EN" "http://www.w3.org/Graphics/SVG/1.1/DTD/svg11.dtd">
<!-- Generator: Adobe Illustrator 19.0.0, SVG Export Plug-In . SVG Version: 6.00 Build 0)  -->
<svg version="1.1" id="Layer_1"
	xmlns="http://www.w3.org/2000/svg"
	xmlns:xlink="http://www.w3.org/1999/xlink" x="0px" y="0px" viewBox="0 0 512 512" style="enable-background:new 0 0 512 512;" xml:space="preserve">
	<path style="fill:#2197D8;" d="M503.351,400.518H264.648V16.519c0-4.777-3.871-8.649-8.649-8.649c-4.778,0-8.649,3.872-8.649,8.649
	v383.999H8.649c-4.777,0-8.649,3.872-8.649,8.649c0,4.777,3.872,8.649,8.649,8.649H247.35v29.404c0,4.777,3.872,8.649,8.649,8.649
	c4.777,0,8.649-3.872,8.649-8.649v-29.404h238.702c4.778,0,8.649-3.872,8.649-8.649C512,404.39,508.129,400.518,503.351,400.518z"/>
	<path d="M255.999,369.383c-48.007,0-92.777-31.607-126.063-88.999c-32.427-55.912-50.286-130.065-50.286-208.8
	c0-4.777,3.872-8.649,8.649-8.649s8.649,3.872,8.649,8.649c0,75.735,17.029,146.805,47.952,200.12
	c30.062,51.834,69.518,80.38,111.099,80.38s81.038-28.545,111.1-80.38c30.921-53.315,47.95-124.385,47.95-200.12
	c0-4.777,3.871-8.649,8.649-8.649c4.778,0,8.649,3.872,8.649,8.649c0,78.735-17.857,152.888-50.284,208.799
	C348.777,337.775,304.007,369.383,255.999,369.383z"/>
	<g>
		<path style="fill:#F95428;" d="M353.507,10.402c-3.379-3.378-8.854-3.378-12.232,0L323.46,28.219l-17.816-17.817
		c-3.379-3.378-8.854-3.378-12.232,0s-3.378,8.854,0,12.231l21.4,21.399v22.105c0,4.777,3.871,8.649,8.649,8.649
		c4.778,0,8.649-3.872,8.649-8.649V44.033l21.399-21.399C356.884,19.257,356.884,13.78,353.507,10.402z"/>
		<path style="fill:#F95428;" d="M486.414,489.366l-17.816-17.816l17.816-17.817c3.378-3.378,3.378-8.854-0.001-12.231
		c-3.377-3.379-8.853-3.378-12.231,0l-17.815,17.816l-17.816-17.816c-3.379-3.378-8.854-3.378-12.232,0
		c-3.378,3.378-3.378,8.854,0,12.231l17.817,17.817l-17.817,17.816c-3.378,3.378-3.378,8.854,0,12.231
		c3.378,3.378,8.853,3.378,12.232,0l17.816-17.816l17.815,17.816c1.689,1.689,3.902,2.534,6.117,2.534
		c2.213,0,4.427-0.844,6.117-2.534C489.79,498.221,489.79,492.744,486.414,489.366z"/>
	</g>
	<g>
	</g>
	<g>
	</g>
	<g>
	</g>
	<g>
	</g>
	<g>
	</g>
	<g>
	</g>
	<g>
	</g>
	<g>
	</g>
	<g>
	</g>
	<g>
	</g>
	<g>
	</g>
	<g>
	</g>
	<g>
	</g>
	<g>
	</g>
	<g>
	</g>
</svg>
